<svg xmlns="http://www.w3.org/2000/svg" viewBox="0 0 400 300">
<rect fill="#161616" x="0" y="0" width="100%" height="100%"/> 

<path fill="#EBAE11"
d="M 200 150
m -30 -9
l -27 -6
a 30 30 0 0 0 30 37 
" />

<path fill="#EBAE11"
d="M 200 150
m 30 -9
l 27 -6
a 30 30 0 0 1 -30 37 
" />

<path fill="#FFF"
d="M 200 195
A 40 40 0 0 1 160 155
l 0 -30
L 200 140 z
" />
<path fill="#FFDEB9"
d="M 200 195
A 40 40 0 0 0 240 155
l 0 -30
L 200 140 z
" />

<path fill="#EBAE11"
d="M 200 150
A 25 25 0 0 1 170 100
L 185 125
A 60 60 0 0 1 200 65
A 60 60 0 0 1 215 125
L 230 100
A 25 25 0 0 1 200 150
" />

<path fill="#161616"
d="M 200 150
m 10 26
a 10 10 0 0 1 -20 0
z
" />
</svg>
