<svg xmlns="http://www.w3.org/2000/svg" viewBox="0 0 400 300">
<rect fill="#161616" x="0" y="0" width="100%" height="100%"/> 

<path fill="#E96A23"
d="M 200 130
l 45 0
a 35 35 0 0 1 35 35
a 5 5 0 0 1 -5 5
l -75 0
" />

<rect fill="#E96A23" width="20" height="150" x="190" y="150"/>
<rect fill="#A22015" width="30" height="50" x="185" y="155" rx="10"/>
<circle fill="#A22015" cx="200" cy="150" r="30"/>
<circle fill="#FFF" cx="200" cy="150" r="25"/>
<path fill="#FFF"
d="M 200 168
l -30 0
a 12 12 0 0 1 -12 -12
l -2 0
a 12 12 0 0 1 -12 -12
l -2 0
a 12 12 0 0 1 -12 -12
l 70 0
" />

<circle fill="#A22015" cx="200" cy="150" r="15"/>
<circle fill="#161616" cx="200" cy="150" r="10"/>





</svg>
