<svg xmlns="http://www.w3.org/2000/svg" viewBox="0 0 400 300">
<rect fill="#5C434C" x="0" y="0" width="100%" height="100%"/> 

<path
fill="#F09462"
d="M 90 90 l -80 0 a 80 80 0 0 1 80 -80 z"
/>
<path
fill="#F5D6B4"
d="M 190 90 l -80 0 a 80 80 0 0 1 80 -80 z"
/>
<path
fill="#F09462"
d="M 290 90 l -80 0 a 80 80 0 0 1 80 -80 z"
/>
<path
fill="#F5D6B4"
d="M 390 90 l -80 0 a 80 80 0 0 1 80 -80 z"
/>


<path
fill="#F5D6B4"
d="M 90 190 l -80 0 a 80 80 0 0 1 80 -80 z"
/>
<path
fill="#F09462"
d="M 190 190 l -80 0 a 80 80 0 0 1 80 -80 z"
/>
<path
fill="#F5D6B4"
d="M 290 190 l -80 0 a 80 80 0 0 1 80 -80 z"
/>
<path
fill="#F09462"
d="M 390 190 l -80 0 a 80 80 0 0 1 80 -80 z"
/>


<path
fill="#F09462"
d="M 90 290 l -80 0 a 80 80 0 0 1 80 -80 z"
/>
<path
fill="#F5D6B4"
d="M 190 290 l -80 0 a 80 80 0 0 1 80 -80 z"
/>
<path
fill="#F09462"
d="M 290 290 l -80 0 a 80 80 0 0 1 80 -80 z"
/>
<path
fill="#F5D6B4"
d="M 390 290 l -80 0 a 80 80 0 0 1 80 -80 z"
/>

</svg>