<svg xmlns="http://www.w3.org/2000/svg" viewBox="0 0 400 300">
<rect fill="#998235" x="0" y="0" width="100%" height="100%"/> 

<path
fill="#1A4341"
d="M 100 60
l 30 0
a 50 50 0 0 1 50 50
l 0 50
l -30 0
a 50 50 0 0 1 -50 -50
z"
/>

<path
fill="#1A4341"
d="M 200 240
l 0 -50
a 50 50 0 0 1 50 -50
l 30 0
l 0 50
a 50 50 0 0 1 -50 50
z"
/>

<path
fill="#F3AC3C"
d="M 200 120
l 0 -10
a 50 50 0 0 1 50 -50
l 30 0
l 0 10
a 50 50 0 0 1 -50 50
z"
/>

<path
fill="#F3AC3C"
d="M 180 240
l 0 -10
a 50 50 0 0 0 -50 -50
l -30 0
l 0 10
a 50 50 0 0 0 50 50
z"
/>


</svg>