<svg xmlns="http://www.w3.org/2000/svg" viewBox="0 0 400 300">
<rect fill="#293462" x="0" y="0" width="100%" height="100%"/> 

<path fill="#FE5F55"
d="M 100 150 
a 100 100 0 0 1 200 0
l 0 60
a 40 40 0 0 1 -40 40
l -120 0
a 40 40 0 0 1 -40 -40
l 0 -60
z"
/>
<path fill="#FFF1C1"
clip-path="circle(100) view-box"
d="M 200 50 
a 50 50 0 0 0 100 0
z"
/>

<path fill="#FFF1C1"
clip-path="circle(100) view-box"
d="M 200 50 
a 50 50 0 0 1 -100 0
z"
/>


<circle fill="#FFF1C1" cx="150" cy="175" r="30"/> 
<circle fill="#FFF1C1" cx="250" cy="175" r="30"/> 
<rect fill="#FFF1C1" 
rx="5"
x="180" y="225" width="40" height="10"/> 
</svg>