<svg  xmlns="http://www.w3.org/2000/svg" id="svg_usehandsanitizer" viewBox="0 0 400 300" style="cursor: pointer;">
<rect fill="#1A4341" x="0" y="0" width="100%" height="100%"/> 

<rect fill="#F3AC3C"
rx="20"
x="150" y="110" width="100" height="140"/> 

<rect fill="#F3AC3C"
rx="10"
x="175" y="90" width="50" height="50"/> 

<circle fill="#998235" cx="290" cy="80" r="10">
<animate
attributeName="cy"
fill="freeze"
dur="0.25s"
calcMode="spline"
begin="svg_usehandsanitizer.click"
restart="whenNotActive"
values="80; 110; 80"
keyTimes="0 ; 0.999 ; 1"
keySplines="0.25 1 0.5 1; 0.25 1 0.5 1"
/>
</circle>

<circle fill="#998235" cx="290" cy="110" r="10">
<animate
attributeName="cy"
fill="freeze"
dur="0.25s"
calcMode="spline"
begin="svg_usehandsanitizer.click"
restart="whenNotActive"
values="110; 140; 110"
keyTimes="0 ; 0.999 ; 1"
keySplines="0.25 1 0.5 1; 0.25 1 0.5 1"
/>
</circle>

<circle fill="#998235" cx="290" cy="140" r="10">
<animate
attributeName="cy"
fill="freeze"
dur="0.25s"
calcMode="spline"
begin="svg_usehandsanitizer.click"
restart="whenNotActive"
values="140; 320; 140"
keyTimes="0 ; 0.999 ; 1"
keySplines="0.25 1 0.5 1; 0.25 1 0.5 1"
/>
</circle>

<path fill="#F3AC3C"
d="M 190 90
l 0 -20
l -30 0
a 10 10 0 0 1 0 -20
l 130 0
a 10 10 0 0 1 10 10
l 0 20
a 10 10 0 0 1 -20 0
l 0 -10
l -70 0
l 0 20
z
"
>
<animate
  attributeName="d"
  fill="freeze"
  dur="0.25s"
  calcMode="spline"
  begin="svg_usehandsanitizer.click"
  restart="whenNotActive"
  values="
  M 190 90 l 0 -20 l -30 0 a 10 10 0 0 1 0 -20 l 130 0 a 10 10 0 0 1 10 10 l 0 20 a 10 10 0 0 1 -20 0 l 0 -10 l -70 0 l 0 20 z;
  M 190 105 l 0 -20 l -30 0 a 10 10 0 0 1 0 -20 l 130 0 a 10 10 0 0 1 10 10 l 0 20 a 10 10 0 0 1 -20 0 l 0 -10 l -70 0 l 0 20 z;
  M 190 90 l 0 -20 l -30 0 a 10 10 0 0 1 0 -20 l 130 0 a 10 10 0 0 1 10 10 l 0 20 a 10 10 0 0 1 -20 0 l 0 -10 l -70 0 l 0 20 z 
  "
  keyTimes="0 ; 0.25 ; 1"
  keySplines="0.25 1 0.5 1 ; 0.45 0 0.55 1"
  />
</path>



<path fill="#998235"
d="M 150 165
a 25 25 0 0 1 50 0
a 25 25 0 0 0 50 0
l 0 65
a 20 20 0 0 1 -20 20
l -60 0
a 20 20 0 0 1 -20 -20
"
/>
</svg>