<svg xmlns="http://www.w3.org/2000/svg" viewBox="0 0 400 300">
<rect fill="#6592CF" x="0" y="0" width="100%" height="100%"/> 


<circle fill="#EEB850" r="20" cx="50" cy="140"/> 
<circle fill="#EEB850" r="30" cx="95" cy="130"/> 
<circle fill="#EEB850" r="20" cx="140" cy="140"/> 

<circle fill="#243D83" r="10" cx="50" cy="140"/> 
<circle fill="#243D83" r="10" cx="95" cy="140"/> 
<circle fill="#243D83" r="10" cx="140" cy="140"/> 
<rect fill="#243D83" x="45" y="140" width="10" height="50"/> 
<rect fill="#243D83" x="90" y="140" width="10" height="50"/> 
<rect fill="#243D83" x="135" y="140" width="10" height="50"/> 


<circle fill="#243D83" r="10" cx="215" cy="140"/> 
<circle fill="#243D83" r="10" cx="260" cy="140"/> 
<circle fill="#243D83" r="10" cx="305" cy="140"/> 
<circle fill="#243D83" r="10" cx="350" cy="140"/> 
<rect fill="#243D83" x="210" y="140" width="10" height="50"/> 
<rect fill="#243D83" x="255" y="140" width="10" height="50"/> 
<rect fill="#243D83" x="300" y="140" width="10" height="50"/> 
<rect fill="#243D83" x="345" y="140" width="10" height="50"/> 

</svg>