<svg viewBox="0 0 200 200">
<rect fill="#191919" x="0" y="0" width="100%" height="100%"/> 

<path 
fill="#fff"
d="
M 74.1 90
l 22.4 22.4 -8.3 20
L 60 104
l -33 33 -14 -14.2
L 45.8 90
l -8.8 -8.8
c -5.3 -5.3 -10 -13 -13 -21.2
h 22
c 1.5 2.8 3.3 5.3 5.1 7
l 8.9 9 8.8 -8.8

C 74.8 61 80 48.4 80 40
H0
V20
h50
V0
h20
v20
h50
v20
h-20
c 0 13.7 -7.4 31.5 -17 41.2
z
"/>


<path 
fill="#fff"
d="
M 100 200
h -20
l 50 -120
h 20
l 50 120
h -20
l -12.5 -30
h -55

M 120.8 150
h 38.4
L 140 104 120.8 150
z
"/>


</svg>

